<mxfile host="65bd71144e">
    <diagram id="7ilYn1LbQ2ubHdBjYper" name="Page-1">
        <mxGraphModel dx="882" dy="622" grid="0" gridSize="10" guides="1" tooltips="1" connect="1" arrows="1" fold="1" page="1" pageScale="1" pageWidth="827" pageHeight="1169" background="#ffffff" math="0" shadow="0">
            <root>
                <mxCell id="0"/>
                <mxCell id="1" parent="0"/>
                <mxCell id="8" style="edgeStyle=none;html=1;exitX=0.5;exitY=1;exitDx=0;exitDy=0;entryX=0.5;entryY=0;entryDx=0;entryDy=0;strokeColor=#000000;endSize=6;strokeWidth=2;shadow=1;" edge="1" parent="1" source="2" target="4">
                    <mxGeometry relative="1" as="geometry"/>
                </mxCell>
                <mxCell id="2" value="Start" style="ellipse;whiteSpace=wrap;html=1;fillColor=#60a917;fontColor=#ffffff;strokeColor=#2D7600;shadow=1;" vertex="1" parent="1">
                    <mxGeometry x="373" y="276" width="80" height="80" as="geometry"/>
                </mxCell>
                <mxCell id="3" value="End" style="ellipse;whiteSpace=wrap;html=1;fillColor=#60a917;fontColor=#ffffff;strokeColor=#000000;strokeWidth=4;shadow=1;" vertex="1" parent="1">
                    <mxGeometry x="373" y="814" width="80" height="80" as="geometry"/>
                </mxCell>
                <mxCell id="9" style="edgeStyle=none;html=1;exitX=0.5;exitY=1;exitDx=0;exitDy=0;strokeColor=#000000;strokeWidth=2;endSize=6;shadow=1;" edge="1" parent="1" source="4" target="6">
                    <mxGeometry relative="1" as="geometry"/>
                </mxCell>
                <mxCell id="4" value="Wake Up" style="rounded=1;whiteSpace=wrap;html=1;strokeWidth=3;fillColor=#1ba1e2;fontColor=#ffffff;strokeColor=#006EAF;shadow=1;" vertex="1" parent="1">
                    <mxGeometry x="354" y="376" width="120" height="60" as="geometry"/>
                </mxCell>
                <mxCell id="11" style="edgeStyle=none;html=1;exitX=0.5;exitY=1;exitDx=0;exitDy=0;entryX=0.5;entryY=0;entryDx=0;entryDy=0;strokeColor=#000000;strokeWidth=2;endSize=6;shadow=1;" edge="1" parent="1" source="5" target="7">
                    <mxGeometry relative="1" as="geometry"/>
                </mxCell>
                <mxCell id="14" value="" style="edgeStyle=none;html=1;strokeColor=#000000;strokeWidth=2;endSize=6;shadow=1;" edge="1" parent="1" source="5" target="7">
                    <mxGeometry relative="1" as="geometry"/>
                </mxCell>
                <mxCell id="5" value="Eat Breakfast" style="rounded=1;whiteSpace=wrap;html=1;strokeWidth=3;fillColor=#1ba1e2;fontColor=#ffffff;strokeColor=#006EAF;shadow=1;" vertex="1" parent="1">
                    <mxGeometry x="353" y="563" width="120" height="60" as="geometry"/>
                </mxCell>
                <mxCell id="10" style="edgeStyle=none;html=1;exitX=0.5;exitY=1;exitDx=0;exitDy=0;entryX=0.5;entryY=0;entryDx=0;entryDy=0;strokeColor=#000000;strokeWidth=2;endSize=6;shadow=1;" edge="1" parent="1" source="6" target="5">
                    <mxGeometry relative="1" as="geometry"/>
                </mxCell>
                <mxCell id="6" value="Brush Teeth" style="rounded=1;whiteSpace=wrap;html=1;strokeWidth=3;fillColor=#1ba1e2;fontColor=#ffffff;strokeColor=#006EAF;shadow=1;" vertex="1" parent="1">
                    <mxGeometry x="353" y="472" width="120" height="60" as="geometry"/>
                </mxCell>
                <mxCell id="12" style="edgeStyle=none;html=1;exitX=0.5;exitY=1;exitDx=0;exitDy=0;entryX=0.5;entryY=0;entryDx=0;entryDy=0;strokeColor=#000000;strokeWidth=2;endSize=6;startArrow=none;shadow=1;" edge="1" parent="1" source="13" target="3">
                    <mxGeometry relative="1" as="geometry"/>
                </mxCell>
                <mxCell id="16" style="edgeStyle=none;sketch=0;html=1;exitX=0.5;exitY=1;exitDx=0;exitDy=0;entryX=0.5;entryY=0;entryDx=0;entryDy=0;shadow=1;strokeColor=#000000;strokeWidth=2;endSize=6;" edge="1" parent="1" source="7" target="13">
                    <mxGeometry relative="1" as="geometry"/>
                </mxCell>
                <mxCell id="7" value="Get Dressed" style="rounded=1;whiteSpace=wrap;html=1;strokeWidth=3;fillColor=#1ba1e2;fontColor=#ffffff;strokeColor=#006EAF;shadow=1;" vertex="1" parent="1">
                    <mxGeometry x="353" y="653" width="120" height="60" as="geometry"/>
                </mxCell>
                <mxCell id="13" value="Got To Class" style="rounded=1;whiteSpace=wrap;html=1;strokeWidth=3;fillColor=#1ba1e2;fontColor=#ffffff;strokeColor=#006EAF;shadow=1;" vertex="1" parent="1">
                    <mxGeometry x="353" y="733" width="120" height="60" as="geometry"/>
                </mxCell>
            </root>
        </mxGraphModel>
    </diagram>
</mxfile>